<svg width="180" height="43" viewBox="0 0 180 43" fill="none" xmlns="http://www.w3.org/2000/svg">
<ellipse cx="2.53529" cy="2.53529" rx="2.53529" ry="2.53529" fill="#D9D9D9"/>
<ellipse cx="21.6193" cy="2.53529" rx="2.53529" ry="2.53529" fill="#D9D9D9"/>
<ellipse cx="21.6193" cy="14.8576" rx="2.53529" ry="2.53529" fill="#D9D9D9"/>
<ellipse cx="21.6193" cy="27.1808" rx="2.53529" ry="2.53529" fill="#D9D9D9"/>
<ellipse cx="21.6193" cy="39.504" rx="2.53529" ry="2.53529" fill="#D9D9D9"/>
<ellipse cx="40.7033" cy="39.504" rx="2.53529" ry="2.53529" fill="#D9D9D9"/>
<ellipse cx="40.7033" cy="27.1808" rx="2.53529" ry="2.53529" fill="#D9D9D9"/>
<ellipse cx="40.7033" cy="14.8576" rx="2.53529" ry="2.53529" fill="#D9D9D9"/>
<ellipse cx="40.7033" cy="2.53529" rx="2.53529" ry="2.53529" fill="#D9D9D9"/>
<ellipse cx="59.7853" cy="2.53529" rx="2.53529" ry="2.53529" fill="#D9D9D9"/>
<ellipse cx="59.7853" cy="14.8576" rx="2.53529" ry="2.53529" fill="#D9D9D9"/>
<ellipse cx="59.7853" cy="27.1808" rx="2.53529" ry="2.53529" fill="#D9D9D9"/>
<ellipse cx="59.7853" cy="39.504" rx="2.53529" ry="2.53529" fill="#D9D9D9"/>
<ellipse cx="78.8693" cy="39.504" rx="2.53529" ry="2.53529" fill="#D9D9D9"/>
<ellipse cx="78.8693" cy="27.1808" rx="2.53529" ry="2.53529" fill="#D9D9D9"/>
<ellipse cx="78.8693" cy="14.8576" rx="2.53529" ry="2.53529" fill="#D9D9D9"/>
<ellipse cx="78.8693" cy="2.53529" rx="2.53529" ry="2.53529" fill="#D9D9D9"/>
<ellipse cx="2.53529" cy="14.8576" rx="2.53529" ry="2.53529" fill="#D9D9D9"/>
<ellipse cx="2.53529" cy="27.1808" rx="2.53529" ry="2.53529" fill="#D9D9D9"/>
<ellipse cx="2.53529" cy="39.504" rx="2.53529" ry="2.53529" fill="#D9D9D9"/>
<ellipse cx="101.131" cy="2.53529" rx="2.53529" ry="2.53529" fill="#D9D9D9"/>
<ellipse cx="120.215" cy="2.53529" rx="2.53529" ry="2.53529" fill="#D9D9D9"/>
<ellipse cx="120.215" cy="14.8576" rx="2.53529" ry="2.53529" fill="#D9D9D9"/>
<ellipse cx="120.215" cy="27.1808" rx="2.53529" ry="2.53529" fill="#D9D9D9"/>
<ellipse cx="120.215" cy="39.504" rx="2.53529" ry="2.53529" fill="#D9D9D9"/>
<ellipse cx="139.299" cy="39.504" rx="2.53529" ry="2.53529" fill="#D9D9D9"/>
<ellipse cx="139.299" cy="27.1808" rx="2.53529" ry="2.53529" fill="#D9D9D9"/>
<ellipse cx="139.299" cy="14.8576" rx="2.53529" ry="2.53529" fill="#D9D9D9"/>
<ellipse cx="139.299" cy="2.53529" rx="2.53529" ry="2.53529" fill="#D9D9D9"/>
<ellipse cx="158.381" cy="2.53529" rx="2.53529" ry="2.53529" fill="#D9D9D9"/>
<ellipse cx="158.381" cy="14.8576" rx="2.53529" ry="2.53529" fill="#D9D9D9"/>
<ellipse cx="158.381" cy="27.1808" rx="2.53529" ry="2.53529" fill="#D9D9D9"/>
<ellipse cx="158.381" cy="39.504" rx="2.53529" ry="2.53529" fill="#D9D9D9"/>
<ellipse cx="177.465" cy="39.504" rx="2.53529" ry="2.53529" fill="#D9D9D9"/>
<ellipse cx="177.465" cy="27.1808" rx="2.53529" ry="2.53529" fill="#D9D9D9"/>
<ellipse cx="177.465" cy="14.8576" rx="2.53529" ry="2.53529" fill="#D9D9D9"/>
<ellipse cx="177.465" cy="2.53529" rx="2.53529" ry="2.53529" fill="#D9D9D9"/>
<ellipse cx="101.131" cy="14.8576" rx="2.53529" ry="2.53529" fill="#D9D9D9"/>
<ellipse cx="101.131" cy="27.1808" rx="2.53529" ry="2.53529" fill="#D9D9D9"/>
<ellipse cx="101.131" cy="39.504" rx="2.53529" ry="2.53529" fill="#D9D9D9"/>
</svg>
