<svg width="70" height="280" viewBox="0 0 70 280" fill="none" xmlns="http://www.w3.org/2000/svg">
<circle cx="3.25585" cy="126.979" r="3.25585" transform="rotate(-90 3.25585 126.979)" fill="#D9D9D9"/>
<circle cx="3.25585" cy="96.0479" r="3.25585" transform="rotate(-90 3.25585 96.0479)" fill="#D9D9D9"/>
<circle cx="24.418" cy="96.0479" r="3.25585" transform="rotate(-90 24.418 96.0479)" fill="#D9D9D9"/>
<circle cx="45.582" cy="96.0479" r="3.25585" transform="rotate(-90 45.582 96.0479)" fill="#D9D9D9"/>
<circle cx="66.7441" cy="96.0479" r="3.25585" transform="rotate(-90 66.7441 96.0479)" fill="#D9D9D9"/>
<circle cx="66.7441" cy="65.1172" r="3.25585" transform="rotate(-90 66.7441 65.1172)" fill="#D9D9D9"/>
<circle cx="45.582" cy="65.1172" r="3.25585" transform="rotate(-90 45.582 65.1172)" fill="#D9D9D9"/>
<circle cx="24.418" cy="65.1172" r="3.25585" transform="rotate(-90 24.418 65.1172)" fill="#D9D9D9"/>
<circle cx="3.25585" cy="65.1172" r="3.25585" transform="rotate(-90 3.25585 65.1172)" fill="#D9D9D9"/>
<circle cx="3.25585" cy="34.1865" r="3.25585" transform="rotate(-90 3.25585 34.1865)" fill="#D9D9D9"/>
<circle cx="24.418" cy="34.1865" r="3.25585" transform="rotate(-90 24.418 34.1865)" fill="#D9D9D9"/>
<circle cx="45.582" cy="34.1865" r="3.25585" transform="rotate(-90 45.582 34.1865)" fill="#D9D9D9"/>
<circle cx="66.7441" cy="34.1865" r="3.25585" transform="rotate(-90 66.7441 34.1865)" fill="#D9D9D9"/>
<circle cx="66.7441" cy="3.25587" r="3.25585" transform="rotate(-90 66.7441 3.25587)" fill="#D9D9D9"/>
<circle cx="45.582" cy="3.25587" r="3.25585" transform="rotate(-90 45.582 3.25587)" fill="#D9D9D9"/>
<circle cx="24.418" cy="3.25587" r="3.25585" transform="rotate(-90 24.418 3.25587)" fill="#D9D9D9"/>
<circle cx="3.25585" cy="3.25587" r="3.25585" transform="rotate(-90 3.25585 3.25587)" fill="#D9D9D9"/>
<circle cx="24.418" cy="126.979" r="3.25585" transform="rotate(-90 24.418 126.979)" fill="#D9D9D9"/>
<circle cx="45.582" cy="126.979" r="3.25585" transform="rotate(-90 45.582 126.979)" fill="#D9D9D9"/>
<circle cx="66.7441" cy="126.979" r="3.25585" transform="rotate(-90 66.7441 126.979)" fill="#D9D9D9"/>
<g opacity="0.9">
<circle cx="3.25585" cy="276.747" r="3.25585" transform="rotate(-90 3.25585 276.747)" fill="#D9D9D9"/>
<circle cx="3.25585" cy="245.816" r="3.25585" transform="rotate(-90 3.25585 245.816)" fill="#D9D9D9"/>
<circle cx="24.418" cy="245.816" r="3.25585" transform="rotate(-90 24.418 245.816)" fill="#D9D9D9"/>
<circle cx="45.582" cy="245.816" r="3.25585" transform="rotate(-90 45.582 245.816)" fill="#D9D9D9"/>
<circle cx="66.7441" cy="245.816" r="3.25585" transform="rotate(-90 66.7441 245.816)" fill="#D9D9D9"/>
<circle cx="66.7441" cy="214.886" r="3.25585" transform="rotate(-90 66.7441 214.886)" fill="#D9D9D9"/>
<circle cx="45.582" cy="214.886" r="3.25585" transform="rotate(-90 45.582 214.886)" fill="#D9D9D9"/>
<circle cx="24.418" cy="214.886" r="3.25585" transform="rotate(-90 24.418 214.886)" fill="#D9D9D9"/>
<circle cx="3.25585" cy="214.886" r="3.25585" transform="rotate(-90 3.25585 214.886)" fill="#D9D9D9"/>
<circle cx="3.25585" cy="183.955" r="3.25585" transform="rotate(-90 3.25585 183.955)" fill="#D9D9D9"/>
<circle cx="24.418" cy="183.955" r="3.25585" transform="rotate(-90 24.418 183.955)" fill="#D9D9D9"/>
<circle cx="45.582" cy="183.955" r="3.25585" transform="rotate(-90 45.582 183.955)" fill="#D9D9D9"/>
<circle cx="66.7441" cy="183.955" r="3.25585" transform="rotate(-90 66.7441 183.955)" fill="#D9D9D9"/>
<circle cx="66.7441" cy="153.024" r="3.25585" transform="rotate(-90 66.7441 153.024)" fill="#D9D9D9"/>
<circle cx="45.582" cy="153.024" r="3.25585" transform="rotate(-90 45.582 153.024)" fill="#D9D9D9"/>
<circle cx="24.418" cy="153.024" r="3.25585" transform="rotate(-90 24.418 153.024)" fill="#D9D9D9"/>
<circle cx="3.25585" cy="153.024" r="3.25585" transform="rotate(-90 3.25585 153.024)" fill="#D9D9D9"/>
<circle cx="24.418" cy="276.747" r="3.25585" transform="rotate(-90 24.418 276.747)" fill="#D9D9D9"/>
<circle cx="45.582" cy="276.747" r="3.25585" transform="rotate(-90 45.582 276.747)" fill="#D9D9D9"/>
<circle cx="66.7441" cy="276.747" r="3.25585" transform="rotate(-90 66.7441 276.747)" fill="#D9D9D9"/>
</g>
</svg>
